<svg width="1600" height="900" viewBox="0 0 1600 900" fill="none" xmlns="http://www.w3.org/2000/svg">
  <defs>
    <linearGradient id="bg" x1="0" y1="0" x2="1600" y2="900" gradientUnits="userSpaceOnUse">
      <stop stop-color="#4E56C0"/>
      <stop offset="1" stop-color="#9B5DE0"/>
    </linearGradient>
    <linearGradient id="text" x1="0" y1="0" x2="1" y2="1">
      <stop offset="0" stop-color="#F9A8D4"/>
      <stop offset="1" stop-color="#D8B4FE"/>
    </linearGradient>
    <filter id="shadow" x="-20%" y="-20%" width="140%" height="140%">
      <feDropShadow dx="0" dy="20" stdDeviation="40" flood-color="#000000" flood-opacity="0.25" />
    </filter>
  </defs>
  <rect width="1600" height="900" rx="48" fill="url(#bg)" />
  <g filter="url(#shadow)">
    <circle cx="320" cy="320" r="180" fill="#ffffff" fill-opacity="0.08" />
    <circle cx="1280" cy="220" r="120" fill="#ffffff" fill-opacity="0.1" />
    <rect x="640" y="120" width="520" height="520" rx="80" fill="#ffffff" fill-opacity="0.06" />
  </g>
  <g opacity="0.95">
    <path d="M473 293C473 244 517 200 566 200H897C944 200 988 244 988 293V537C988 586 944 630 897 630H566C517 630 473 586 473 537V293Z" fill="#ffffff" fill-opacity="0.18" />
    <path d="M548 269H913" stroke="#FFFFFF" stroke-width="18" stroke-linecap="round" />
    <circle cx="620" cy="420" r="52" fill="#ffffff" fill-opacity="0.3" />
    <circle cx="780" cy="420" r="38" fill="#ffffff" fill-opacity="0.35" />
    <rect x="678" y="324" width="16" height="232" rx="8" fill="#ffffff" fill-opacity="0.4" />
    <rect x="554" y="500" width="392" height="22" rx="11" fill="#ffffff" fill-opacity="0.3" />
  </g>
  <text x="160" y="700" font-family="Inter, sans-serif" font-size="120" font-weight="800" fill="url(#text)">Skillforge</text>
  <text x="160" y="810" font-family="Inter, sans-serif" font-size="80" font-weight="700" fill="#FFFFFF" opacity="0.92">AI Learning Companion</text>
</svg>
